# xmcd
#
# Track frame offsets:
#	150
#	14187
#	28114
#	42671
#	58507
#	75238
#	90392
#	107935
#	126539
#	141870
#	159950
#	173659
#	187984
#	201497
#	216540
#	243100
#
# Disc length: 3799 seconds
#
# Revision: 3
# Processed by: cddbd v1.5.2PL0 Copyright (c) Steve Scherf et al.
# Submitted via: audiograbber 1.83.01
#
DISCID=e30ed510
DTITLE=Various Artist - ASK-59 Disc 2
DYEAR=2006
DGENRE=Country
TTITLE0=Jamey Johnson - The Dollar
TTITLE1=Jamie O'Neil - I Love My Life
TTITLE2=Jason Aldean - Why
TTITLE3=Josh Turner - Your Man
TTITLE4=XXL - Keith Anderson
TTITLE5=Kenny Chesney - Living In Fast Forward\\\\
TTITLE6=Lee Ann Rimes - Something's Got To Give
TTITLE7=Little Big Town - Bring It On Home
TTITLE8=Martina McBride - (I Never Promised You A) Rose Garden
TTITLE9=Martina McBride - Help Me Make It Through The Night
TTITLE10=Miranda Lambert - Night
TTITLE11=Montgomery Gentry - She Don't Tell Me To
TTITLE12=Toby Keith - Big Blue Note
TTITLE13=Trent Tomlinson - Drunker Than Me
TTITLE14=Van Zant - Nobody Gonna Tell Me What To Do
TTITLE15=Data Track - Data Track
EXTD=
EXTT0=
EXTT1=
EXTT2=
EXTT3=
EXTT4=
EXTT5=
EXTT6=
EXTT7=
EXTT8=
EXTT9=
EXTT10=
EXTT11=
EXTT12=
EXTT13=
EXTT14=
EXTT15=
PLAYORDER=
